<mxfile host="app.diagrams.net" modified="2021-04-04T07:05:00.068Z" agent="5.0 (Windows NT 10.0; Win64; x64) AppleWebKit/537.36 (KHTML, like Gecko) Chrome/89.0.4389.114 Safari/537.36" etag="vDxe8NhSeXnlWF-NBZu6" version="14.5.7" type="github" pages="2">
  <diagram name="Page-1" id="42789a77-a242-8287-6e28-9cd8cfd52e62">
    <mxGraphModel dx="1038" dy="547" grid="1" gridSize="10" guides="1" tooltips="1" connect="1" arrows="1" fold="1" page="1" pageScale="1" pageWidth="1100" pageHeight="850" background="#ffffff" math="0" shadow="0">
      <root>
        <mxCell id="0" />
        <mxCell id="1" parent="0" />
        <mxCell id="1EMOrDI6KpjG5rJn1dOF-1" value="&lt;p style=&quot;line-height: 130%&quot;&gt;&lt;font style=&quot;font-size: 20px ; line-height: 158%&quot;&gt;需求分析阶段&lt;/font&gt;&lt;/p&gt;" style="rounded=0;whiteSpace=wrap;html=1;align=center;" vertex="1" parent="1">
          <mxGeometry x="80" y="30" width="40" height="530" as="geometry" />
        </mxCell>
        <mxCell id="1EMOrDI6KpjG5rJn1dOF-2" value="&lt;p style=&quot;line-height: 130%&quot;&gt;&lt;span style=&quot;font-size: 20px ; line-height: 158%&quot;&gt;设计阶段&lt;/span&gt;&lt;/p&gt;" style="rounded=0;whiteSpace=wrap;html=1;align=center;" vertex="1" parent="1">
          <mxGeometry x="80" y="560" width="40" height="490" as="geometry" />
        </mxCell>
        <mxCell id="1EMOrDI6KpjG5rJn1dOF-3" style="edgeStyle=orthogonalEdgeStyle;rounded=0;orthogonalLoop=1;jettySize=auto;html=1;exitX=0.5;exitY=1;exitDx=0;exitDy=0;fontSize=16;" edge="1" parent="1" source="1EMOrDI6KpjG5rJn1dOF-4" target="1EMOrDI6KpjG5rJn1dOF-7">
          <mxGeometry relative="1" as="geometry">
            <mxPoint x="540" y="120" as="targetPoint" />
          </mxGeometry>
        </mxCell>
        <mxCell id="1EMOrDI6KpjG5rJn1dOF-4" value="原有项目计划" style="rounded=1;whiteSpace=wrap;html=1;fontSize=16;" vertex="1" parent="1">
          <mxGeometry x="480" y="36" width="120" height="54" as="geometry" />
        </mxCell>
        <mxCell id="1EMOrDI6KpjG5rJn1dOF-5" style="edgeStyle=orthogonalEdgeStyle;rounded=0;orthogonalLoop=1;jettySize=auto;html=1;exitX=1;exitY=0.5;exitDx=0;exitDy=0;entryX=0.5;entryY=0;entryDx=0;entryDy=0;fontSize=16;" edge="1" parent="1" source="1EMOrDI6KpjG5rJn1dOF-7" target="1EMOrDI6KpjG5rJn1dOF-19">
          <mxGeometry relative="1" as="geometry">
            <Array as="points">
              <mxPoint x="820" y="145" />
              <mxPoint x="820" y="180" />
            </Array>
          </mxGeometry>
        </mxCell>
        <mxCell id="1EMOrDI6KpjG5rJn1dOF-6" style="edgeStyle=orthogonalEdgeStyle;rounded=0;orthogonalLoop=1;jettySize=auto;html=1;entryX=0.5;entryY=0;entryDx=0;entryDy=0;fontSize=16;" edge="1" parent="1" source="1EMOrDI6KpjG5rJn1dOF-7" target="1EMOrDI6KpjG5rJn1dOF-10">
          <mxGeometry relative="1" as="geometry">
            <Array as="points">
              <mxPoint x="543" y="250" />
              <mxPoint x="543" y="250" />
            </Array>
          </mxGeometry>
        </mxCell>
        <mxCell id="1EMOrDI6KpjG5rJn1dOF-7" value="&lt;p class=&quot;MsoNormal&quot;&gt;&lt;span style=&quot;font-size: 14pt&quot;&gt;&lt;font face=&quot;仿宋_GB2312&quot;&gt;确定软件功能、性能、运行数据等需求&lt;/font&gt;&lt;/span&gt;&lt;/p&gt;" style="rounded=0;whiteSpace=wrap;html=1;" vertex="1" parent="1">
          <mxGeometry x="360" y="120" width="360" height="50" as="geometry" />
        </mxCell>
        <mxCell id="1EMOrDI6KpjG5rJn1dOF-8" style="edgeStyle=orthogonalEdgeStyle;rounded=0;orthogonalLoop=1;jettySize=auto;html=1;exitX=0.5;exitY=1;exitDx=0;exitDy=0;entryX=0.5;entryY=0;entryDx=0;entryDy=0;fontSize=16;" edge="1" parent="1" source="1EMOrDI6KpjG5rJn1dOF-10" target="1EMOrDI6KpjG5rJn1dOF-12">
          <mxGeometry relative="1" as="geometry" />
        </mxCell>
        <mxCell id="1EMOrDI6KpjG5rJn1dOF-9" style="edgeStyle=orthogonalEdgeStyle;rounded=0;orthogonalLoop=1;jettySize=auto;html=1;entryX=0.5;entryY=0;entryDx=0;entryDy=0;fontSize=16;" edge="1" parent="1" source="1EMOrDI6KpjG5rJn1dOF-10" target="1EMOrDI6KpjG5rJn1dOF-20">
          <mxGeometry relative="1" as="geometry" />
        </mxCell>
        <mxCell id="1EMOrDI6KpjG5rJn1dOF-10" value="需修改开发计划" style="rounded=1;whiteSpace=wrap;html=1;fontSize=16;" vertex="1" parent="1">
          <mxGeometry x="475" y="235" width="135" height="50" as="geometry" />
        </mxCell>
        <mxCell id="1EMOrDI6KpjG5rJn1dOF-11" style="edgeStyle=orthogonalEdgeStyle;rounded=0;orthogonalLoop=1;jettySize=auto;html=1;exitX=0;exitY=0.5;exitDx=0;exitDy=0;entryX=0;entryY=0.5;entryDx=0;entryDy=0;fontSize=16;" edge="1" parent="1" source="1EMOrDI6KpjG5rJn1dOF-12" target="1EMOrDI6KpjG5rJn1dOF-10">
          <mxGeometry relative="1" as="geometry">
            <Array as="points">
              <mxPoint x="380" y="387" />
              <mxPoint x="380" y="260" />
            </Array>
          </mxGeometry>
        </mxCell>
        <mxCell id="1EMOrDI6KpjG5rJn1dOF-12" value="技术复查" style="rhombus;whiteSpace=wrap;html=1;fontSize=16;" vertex="1" parent="1">
          <mxGeometry x="462.5" y="347" width="160" height="80" as="geometry" />
        </mxCell>
        <mxCell id="1EMOrDI6KpjG5rJn1dOF-13" style="edgeStyle=orthogonalEdgeStyle;rounded=0;orthogonalLoop=1;jettySize=auto;html=1;entryX=1;entryY=0.5;entryDx=0;entryDy=0;fontSize=16;" edge="1" parent="1" source="1EMOrDI6KpjG5rJn1dOF-14" target="1EMOrDI6KpjG5rJn1dOF-22">
          <mxGeometry relative="1" as="geometry">
            <Array as="points">
              <mxPoint x="980" y="500" />
              <mxPoint x="980" y="235" />
            </Array>
          </mxGeometry>
        </mxCell>
        <mxCell id="1EMOrDI6KpjG5rJn1dOF-14" value="技术复查" style="rhombus;whiteSpace=wrap;html=1;fontSize=16;" vertex="1" parent="1">
          <mxGeometry x="462.5" y="460" width="160" height="80" as="geometry" />
        </mxCell>
        <mxCell id="1EMOrDI6KpjG5rJn1dOF-15" value="" style="endArrow=none;html=1;entryX=0.5;entryY=1;entryDx=0;entryDy=0;" edge="1" parent="1" target="1EMOrDI6KpjG5rJn1dOF-12">
          <mxGeometry width="50" height="50" relative="1" as="geometry">
            <mxPoint x="543" y="462" as="sourcePoint" />
            <mxPoint x="542.5" y="432" as="targetPoint" />
            <Array as="points" />
          </mxGeometry>
        </mxCell>
        <mxCell id="1EMOrDI6KpjG5rJn1dOF-16" value="可接受" style="text;html=1;resizable=0;points=[];autosize=1;align=left;verticalAlign=top;spacingTop=-4;fontSize=16;" vertex="1" parent="1">
          <mxGeometry x="550" y="433.5" width="60" height="20" as="geometry" />
        </mxCell>
        <mxCell id="1EMOrDI6KpjG5rJn1dOF-17" value="修改" style="text;html=1;resizable=0;points=[];autosize=1;align=left;verticalAlign=top;spacingTop=-4;fontSize=16;" vertex="1" parent="1">
          <mxGeometry x="625" y="470" width="50" height="20" as="geometry" />
        </mxCell>
        <mxCell id="1EMOrDI6KpjG5rJn1dOF-18" value="修改" style="text;html=1;resizable=0;points=[];autosize=1;align=left;verticalAlign=top;spacingTop=-4;fontSize=16;" vertex="1" parent="1">
          <mxGeometry x="420" y="357" width="50" height="20" as="geometry" />
        </mxCell>
        <mxCell id="1EMOrDI6KpjG5rJn1dOF-19" value="用户手册" style="shape=document;whiteSpace=wrap;html=1;boundedLbl=1;fontSize=16;" vertex="1" parent="1">
          <mxGeometry x="760" y="180" width="120" height="50" as="geometry" />
        </mxCell>
        <mxCell id="1EMOrDI6KpjG5rJn1dOF-20" value="&lt;p class=&quot;MsoNormal&quot;&gt;&lt;span style=&quot;font-size: 14pt&quot;&gt;&lt;font face=&quot;仿宋_GB2312&quot;&gt;软件需求说明书&lt;/font&gt;&lt;/span&gt;&lt;/p&gt;" style="shape=document;whiteSpace=wrap;html=1;boundedLbl=1;" vertex="1" parent="1">
          <mxGeometry x="660" y="337" width="160" height="63" as="geometry" />
        </mxCell>
        <mxCell id="1EMOrDI6KpjG5rJn1dOF-21" value="&lt;p class=&quot;MsoNormal&quot;&gt;&lt;span style=&quot;font-size: 14pt&quot;&gt;&lt;font face=&quot;仿宋_GB2312&quot;&gt;数据需求说明书&lt;/font&gt;&lt;/span&gt;&lt;/p&gt;" style="shape=document;whiteSpace=wrap;html=1;boundedLbl=1;fontSize=16;" vertex="1" parent="1">
          <mxGeometry x="710" y="377" width="160" height="63" as="geometry" />
        </mxCell>
        <mxCell id="1EMOrDI6KpjG5rJn1dOF-22" value="开发计划" style="shape=document;whiteSpace=wrap;html=1;boundedLbl=1;fontSize=16;" vertex="1" parent="1">
          <mxGeometry x="810" y="210" width="120" height="50" as="geometry" />
        </mxCell>
        <mxCell id="1EMOrDI6KpjG5rJn1dOF-23" value="" style="endArrow=none;html=1;fontSize=16;entryX=0.5;entryY=1;entryDx=0;entryDy=0;" edge="1" parent="1" target="1EMOrDI6KpjG5rJn1dOF-14">
          <mxGeometry width="50" height="50" relative="1" as="geometry">
            <mxPoint x="543" y="580" as="sourcePoint" />
            <mxPoint x="567.5" y="600" as="targetPoint" />
          </mxGeometry>
        </mxCell>
        <mxCell id="1EMOrDI6KpjG5rJn1dOF-24" value="可接受" style="text;html=1;resizable=0;points=[];autosize=1;align=left;verticalAlign=top;spacingTop=-4;fontSize=16;" vertex="1" parent="1">
          <mxGeometry x="550" y="546.5" width="60" height="20" as="geometry" />
        </mxCell>
        <mxCell id="1EMOrDI6KpjG5rJn1dOF-25" style="edgeStyle=orthogonalEdgeStyle;rounded=0;orthogonalLoop=1;jettySize=auto;html=1;entryX=0.55;entryY=-0.02;entryDx=0;entryDy=0;entryPerimeter=0;fontSize=16;" edge="1" parent="1" source="1EMOrDI6KpjG5rJn1dOF-26" target="1EMOrDI6KpjG5rJn1dOF-27">
          <mxGeometry relative="1" as="geometry" />
        </mxCell>
        <mxCell id="1EMOrDI6KpjG5rJn1dOF-26" value="&lt;p class=&quot;MsoNormal&quot;&gt;&lt;span style=&quot;font-size: 14pt&quot;&gt;&lt;font face=&quot;仿宋_GB2312&quot;&gt;定义软件结构与全局数据结构，确定模&lt;/font&gt;&lt;/span&gt;&lt;span style=&quot;font-size: 14pt&quot;&gt;块接口，规定设计限制，制定测试计划&lt;/span&gt;&lt;/p&gt;" style="rounded=0;whiteSpace=wrap;html=1;fontSize=16;align=center;" vertex="1" parent="1">
          <mxGeometry x="360" y="580" width="370" height="60" as="geometry" />
        </mxCell>
        <mxCell id="1EMOrDI6KpjG5rJn1dOF-27" value="&lt;p class=&quot;MsoNormal&quot;&gt;&lt;span style=&quot;font-size: 14pt&quot;&gt;&lt;font face=&quot;仿宋_GB2312&quot;&gt;概要设计说明书&lt;/font&gt;&lt;/span&gt;&lt;/p&gt;" style="shape=document;whiteSpace=wrap;html=1;boundedLbl=1;fontSize=16;" vertex="1" parent="1">
          <mxGeometry x="770" y="660" width="140" height="60" as="geometry" />
        </mxCell>
        <mxCell id="1EMOrDI6KpjG5rJn1dOF-28" value="&lt;p class=&quot;MsoNormal&quot;&gt;&lt;span style=&quot;font-size: 14pt&quot;&gt;&lt;font face=&quot;仿宋_GB2312&quot;&gt;模块开发卷宗&lt;/font&gt;&lt;/span&gt;&lt;/p&gt;" style="shape=document;whiteSpace=wrap;html=1;boundedLbl=1;fontSize=16;" vertex="1" parent="1">
          <mxGeometry x="805" y="700" width="150" height="60" as="geometry" />
        </mxCell>
        <mxCell id="1EMOrDI6KpjG5rJn1dOF-29" style="edgeStyle=orthogonalEdgeStyle;rounded=0;orthogonalLoop=1;jettySize=auto;html=1;entryX=0;entryY=0.5;entryDx=0;entryDy=0;fontSize=16;" edge="1" parent="1" source="1EMOrDI6KpjG5rJn1dOF-30" target="1EMOrDI6KpjG5rJn1dOF-26">
          <mxGeometry relative="1" as="geometry">
            <Array as="points">
              <mxPoint x="340" y="720" />
              <mxPoint x="340" y="610" />
            </Array>
          </mxGeometry>
        </mxCell>
        <mxCell id="1EMOrDI6KpjG5rJn1dOF-30" value="技术复查" style="rhombus;whiteSpace=wrap;html=1;fontSize=16;" vertex="1" parent="1">
          <mxGeometry x="462.5" y="680" width="160" height="80" as="geometry" />
        </mxCell>
        <mxCell id="1EMOrDI6KpjG5rJn1dOF-31" value="" style="endArrow=none;html=1;fontSize=16;exitX=0.5;exitY=0;exitDx=0;exitDy=0;" edge="1" parent="1" source="1EMOrDI6KpjG5rJn1dOF-30">
          <mxGeometry width="50" height="50" relative="1" as="geometry">
            <mxPoint x="500" y="690" as="sourcePoint" />
            <mxPoint x="543" y="640" as="targetPoint" />
            <Array as="points">
              <mxPoint x="543" y="670" />
            </Array>
          </mxGeometry>
        </mxCell>
        <mxCell id="1EMOrDI6KpjG5rJn1dOF-32" value="修改" style="text;html=1;resizable=0;points=[];autosize=1;align=left;verticalAlign=top;spacingTop=-4;fontSize=16;" vertex="1" parent="1">
          <mxGeometry x="412.5" y="696" width="50" height="20" as="geometry" />
        </mxCell>
        <mxCell id="1EMOrDI6KpjG5rJn1dOF-33" value="" style="endArrow=none;html=1;fontSize=16;" edge="1" parent="1">
          <mxGeometry width="50" height="50" relative="1" as="geometry">
            <mxPoint x="543" y="790" as="sourcePoint" />
            <mxPoint x="542.5" y="760" as="targetPoint" />
          </mxGeometry>
        </mxCell>
        <mxCell id="1EMOrDI6KpjG5rJn1dOF-34" value="可接受" style="text;html=1;resizable=0;points=[];autosize=1;align=left;verticalAlign=top;spacingTop=-4;fontSize=16;" vertex="1" parent="1">
          <mxGeometry x="550" y="760" width="60" height="20" as="geometry" />
        </mxCell>
        <mxCell id="1EMOrDI6KpjG5rJn1dOF-35" style="edgeStyle=orthogonalEdgeStyle;rounded=0;orthogonalLoop=1;jettySize=auto;html=1;exitX=1;exitY=0.5;exitDx=0;exitDy=0;entryX=0.598;entryY=-0.002;entryDx=0;entryDy=0;entryPerimeter=0;fontSize=16;" edge="1" parent="1" source="1EMOrDI6KpjG5rJn1dOF-36" target="1EMOrDI6KpjG5rJn1dOF-37">
          <mxGeometry relative="1" as="geometry" />
        </mxCell>
        <mxCell id="1EMOrDI6KpjG5rJn1dOF-36" value="设计模块内部细节" style="rounded=0;whiteSpace=wrap;html=1;fontSize=16;" vertex="1" parent="1">
          <mxGeometry x="466" y="790" width="153" height="60" as="geometry" />
        </mxCell>
        <mxCell id="1EMOrDI6KpjG5rJn1dOF-37" value="&lt;p class=&quot;MsoNormal&quot;&gt;&lt;span style=&quot;font-size: 14pt&quot;&gt;&lt;font face=&quot;仿宋_GB2312&quot;&gt;详细设计说明书&lt;/font&gt;&lt;/span&gt;&lt;/p&gt;" style="shape=document;whiteSpace=wrap;html=1;boundedLbl=1;fontSize=16;" vertex="1" parent="1">
          <mxGeometry x="687.5" y="850" width="145" height="60" as="geometry" />
        </mxCell>
        <mxCell id="1EMOrDI6KpjG5rJn1dOF-38" value="&lt;p class=&quot;MsoNormal&quot;&gt;&lt;span style=&quot;font-size: 14pt&quot;&gt;&lt;font face=&quot;仿宋_GB2312&quot;&gt;数据库设计说明&lt;/font&gt;&lt;/span&gt;&lt;/p&gt;" style="shape=document;whiteSpace=wrap;html=1;boundedLbl=1;fontSize=16;" vertex="1" parent="1">
          <mxGeometry x="700" y="890" width="180" height="60" as="geometry" />
        </mxCell>
        <mxCell id="1EMOrDI6KpjG5rJn1dOF-39" value="&lt;p class=&quot;MsoNormal&quot;&gt;&lt;span style=&quot;font-size: 14pt&quot;&gt;&lt;font face=&quot;仿宋_GB2312&quot;&gt;模块开发卷宗&lt;/font&gt;&lt;/span&gt;&lt;/p&gt;" style="shape=document;whiteSpace=wrap;html=1;boundedLbl=1;fontSize=16;" vertex="1" parent="1">
          <mxGeometry x="715" y="930" width="150" height="60" as="geometry" />
        </mxCell>
        <mxCell id="1EMOrDI6KpjG5rJn1dOF-40" style="edgeStyle=orthogonalEdgeStyle;rounded=0;orthogonalLoop=1;jettySize=auto;html=1;entryX=0;entryY=0.5;entryDx=0;entryDy=0;fontSize=16;" edge="1" parent="1" source="1EMOrDI6KpjG5rJn1dOF-42" target="1EMOrDI6KpjG5rJn1dOF-36">
          <mxGeometry relative="1" as="geometry">
            <Array as="points">
              <mxPoint x="380" y="920" />
              <mxPoint x="380" y="820" />
            </Array>
          </mxGeometry>
        </mxCell>
        <mxCell id="1EMOrDI6KpjG5rJn1dOF-41" style="edgeStyle=orthogonalEdgeStyle;rounded=0;orthogonalLoop=1;jettySize=auto;html=1;exitX=0.5;exitY=1;exitDx=0;exitDy=0;entryX=0.5;entryY=0;entryDx=0;entryDy=0;fontSize=16;" edge="1" parent="1" source="1EMOrDI6KpjG5rJn1dOF-42" target="1EMOrDI6KpjG5rJn1dOF-45">
          <mxGeometry relative="1" as="geometry" />
        </mxCell>
        <mxCell id="1EMOrDI6KpjG5rJn1dOF-42" value="技术复查" style="rhombus;whiteSpace=wrap;html=1;fontSize=16;" vertex="1" parent="1">
          <mxGeometry x="462.5" y="880" width="160" height="80" as="geometry" />
        </mxCell>
        <mxCell id="1EMOrDI6KpjG5rJn1dOF-43" value="" style="endArrow=none;html=1;fontSize=16;exitX=0.5;exitY=0;exitDx=0;exitDy=0;" edge="1" parent="1" source="1EMOrDI6KpjG5rJn1dOF-42">
          <mxGeometry width="50" height="50" relative="1" as="geometry">
            <mxPoint x="492.5" y="900" as="sourcePoint" />
            <mxPoint x="542.5" y="850" as="targetPoint" />
          </mxGeometry>
        </mxCell>
        <mxCell id="1EMOrDI6KpjG5rJn1dOF-44" value="修改" style="text;html=1;resizable=0;points=[];autosize=1;align=left;verticalAlign=top;spacingTop=-4;fontSize=16;" vertex="1" parent="1">
          <mxGeometry x="410" y="890" width="50" height="20" as="geometry" />
        </mxCell>
        <mxCell id="1EMOrDI6KpjG5rJn1dOF-45" value="A" style="ellipse;whiteSpace=wrap;html=1;aspect=fixed;fontSize=16;" vertex="1" parent="1">
          <mxGeometry x="517.5" y="1005" width="50" height="50" as="geometry" />
        </mxCell>
        <mxCell id="1EMOrDI6KpjG5rJn1dOF-46" value="可接受" style="text;html=1;resizable=0;points=[];autosize=1;align=left;verticalAlign=top;spacingTop=-4;fontSize=16;" vertex="1" parent="1">
          <mxGeometry x="550" y="962" width="60" height="20" as="geometry" />
        </mxCell>
        <mxCell id="1EMOrDI6KpjG5rJn1dOF-47" style="edgeStyle=orthogonalEdgeStyle;rounded=0;orthogonalLoop=1;jettySize=auto;html=1;entryX=0.701;entryY=0.691;entryDx=0;entryDy=0;entryPerimeter=0;fontSize=16;" edge="1" parent="1" source="1EMOrDI6KpjG5rJn1dOF-48" target="1EMOrDI6KpjG5rJn1dOF-28">
          <mxGeometry relative="1" as="geometry" />
        </mxCell>
        <mxCell id="1EMOrDI6KpjG5rJn1dOF-48" value="测试计划复审" style="rounded=0;whiteSpace=wrap;html=1;fontSize=16;" vertex="1" parent="1">
          <mxGeometry x="600" y="1000" width="120" height="30" as="geometry" />
        </mxCell>
        <mxCell id="1EMOrDI6KpjG5rJn1dOF-49" value="" style="endArrow=none;html=1;fontSize=16;exitX=0.5;exitY=0;exitDx=0;exitDy=0;" edge="1" parent="1" source="1EMOrDI6KpjG5rJn1dOF-48">
          <mxGeometry width="50" height="50" relative="1" as="geometry">
            <mxPoint x="637.5" y="1005" as="sourcePoint" />
            <mxPoint x="660" y="920" as="targetPoint" />
          </mxGeometry>
        </mxCell>
        <mxCell id="1EMOrDI6KpjG5rJn1dOF-50" value="" style="endArrow=none;html=1;fontSize=16;exitX=1;exitY=0.5;exitDx=0;exitDy=0;" edge="1" parent="1" source="1EMOrDI6KpjG5rJn1dOF-42">
          <mxGeometry width="50" height="50" relative="1" as="geometry">
            <mxPoint x="610" y="970" as="sourcePoint" />
            <mxPoint x="660" y="920" as="targetPoint" />
          </mxGeometry>
        </mxCell>
      </root>
    </mxGraphModel>
  </diagram>
  <diagram id="BpV-0ItwG-Vfsif43hPE" name="Page-2">
    <mxGraphModel dx="1038" dy="547" grid="1" gridSize="10" guides="1" tooltips="1" connect="1" arrows="1" fold="1" page="1" pageScale="1" pageWidth="827" pageHeight="1169" math="0" shadow="0">
      <root>
        <mxCell id="ol8dqdeNw1faZMbp2K77-0" />
        <mxCell id="ol8dqdeNw1faZMbp2K77-1" parent="ol8dqdeNw1faZMbp2K77-0" />
        <mxCell id="ol8dqdeNw1faZMbp2K77-2" value="&lt;p class=&quot;MsoNormal&quot;&gt;&lt;span style=&quot;font-size: 14pt&quot;&gt;&lt;font face=&quot;仿宋_GB2312&quot; style=&quot;line-height: 158%&quot;&gt;实用与维护阶段&lt;/font&gt;&lt;/span&gt;&lt;/p&gt;" style="rounded=0;whiteSpace=wrap;html=1;align=center;" vertex="1" parent="ol8dqdeNw1faZMbp2K77-1">
          <mxGeometry x="50" y="130" width="40" height="740" as="geometry" />
        </mxCell>
        <mxCell id="ol8dqdeNw1faZMbp2K77-3" style="edgeStyle=orthogonalEdgeStyle;rounded=0;orthogonalLoop=1;jettySize=auto;html=1;fontSize=16;" edge="1" parent="ol8dqdeNw1faZMbp2K77-1" source="ol8dqdeNw1faZMbp2K77-4" target="ol8dqdeNw1faZMbp2K77-5">
          <mxGeometry relative="1" as="geometry" />
        </mxCell>
        <mxCell id="ol8dqdeNw1faZMbp2K77-4" value="B" style="ellipse;whiteSpace=wrap;html=1;aspect=fixed;fontSize=16;" vertex="1" parent="ol8dqdeNw1faZMbp2K77-1">
          <mxGeometry x="479.5" y="130" width="50" height="50" as="geometry" />
        </mxCell>
        <mxCell id="ol8dqdeNw1faZMbp2K77-5" value="&lt;p class=&quot;MsoNormal&quot;&gt;&lt;span style=&quot;font-size: 14pt&quot;&gt;&lt;font face=&quot;仿宋_GB2312&quot;&gt;软件交付用户使用&lt;/font&gt;&lt;/span&gt;&lt;/p&gt;" style="rounded=0;whiteSpace=wrap;html=1;fontSize=16;" vertex="1" parent="ol8dqdeNw1faZMbp2K77-1">
          <mxGeometry x="419.5" y="220" width="170" height="60" as="geometry" />
        </mxCell>
        <mxCell id="ol8dqdeNw1faZMbp2K77-6" value="&lt;p class=&quot;MsoNormal&quot;&gt;&lt;span style=&quot;font-size: 14pt&quot;&gt;&lt;font face=&quot;仿宋_GB2312&quot;&gt;用户关于错误改正、功能完善、软件适应、功能扩充维护等方面的反馈&lt;/font&gt;&lt;/span&gt;&lt;/p&gt;" style="rounded=0;whiteSpace=wrap;html=1;fontSize=16;" vertex="1" parent="ol8dqdeNw1faZMbp2K77-1">
          <mxGeometry x="342" y="310" width="325" height="60" as="geometry" />
        </mxCell>
        <mxCell id="ol8dqdeNw1faZMbp2K77-7" value="" style="endArrow=none;html=1;fontSize=16;exitX=0.5;exitY=0;exitDx=0;exitDy=0;" edge="1" parent="ol8dqdeNw1faZMbp2K77-1" source="ol8dqdeNw1faZMbp2K77-6">
          <mxGeometry width="50" height="50" relative="1" as="geometry">
            <mxPoint x="454.5" y="330" as="sourcePoint" />
            <mxPoint x="504.5" y="280" as="targetPoint" />
          </mxGeometry>
        </mxCell>
        <mxCell id="ol8dqdeNw1faZMbp2K77-8" style="edgeStyle=orthogonalEdgeStyle;rounded=0;orthogonalLoop=1;jettySize=auto;html=1;exitX=1;exitY=0.5;exitDx=0;exitDy=0;entryX=0;entryY=0.5;entryDx=0;entryDy=0;fontSize=16;" edge="1" parent="ol8dqdeNw1faZMbp2K77-1" source="ol8dqdeNw1faZMbp2K77-9" target="ol8dqdeNw1faZMbp2K77-11">
          <mxGeometry relative="1" as="geometry" />
        </mxCell>
        <mxCell id="ol8dqdeNw1faZMbp2K77-9" value="&lt;p class=&quot;MsoNormal&quot;&gt;&lt;span style=&quot;font-size: 14pt&quot;&gt;&lt;font face=&quot;仿宋_GB2312&quot;&gt;维护人员评议反馈可行性&lt;/font&gt;&lt;/span&gt;&lt;/p&gt;" style="rounded=0;whiteSpace=wrap;html=1;fontSize=16;" vertex="1" parent="ol8dqdeNw1faZMbp2K77-1">
          <mxGeometry x="344" y="400" width="321" height="40" as="geometry" />
        </mxCell>
        <mxCell id="ol8dqdeNw1faZMbp2K77-10" value="" style="endArrow=none;html=1;fontSize=16;" edge="1" parent="ol8dqdeNw1faZMbp2K77-1" source="ol8dqdeNw1faZMbp2K77-9">
          <mxGeometry width="50" height="50" relative="1" as="geometry">
            <mxPoint x="454.5" y="420" as="sourcePoint" />
            <mxPoint x="504.5" y="370" as="targetPoint" />
          </mxGeometry>
        </mxCell>
        <mxCell id="ol8dqdeNw1faZMbp2K77-11" value="&lt;p class=&quot;MsoNormal&quot;&gt;&lt;span style=&quot;font-size: 14pt&quot;&gt;&lt;font face=&quot;仿宋_GB2312&quot;&gt;软件问题报告&lt;/font&gt;&lt;/span&gt;&lt;/p&gt;" style="shape=document;whiteSpace=wrap;html=1;boundedLbl=1;fontSize=16;" vertex="1" parent="ol8dqdeNw1faZMbp2K77-1">
          <mxGeometry x="737" y="395" width="140" height="50" as="geometry" />
        </mxCell>
        <mxCell id="ol8dqdeNw1faZMbp2K77-12" value="" style="endArrow=none;html=1;fontSize=16;exitX=0.5;exitY=0;exitDx=0;exitDy=0;" edge="1" parent="ol8dqdeNw1faZMbp2K77-1" source="ol8dqdeNw1faZMbp2K77-13">
          <mxGeometry width="50" height="50" relative="1" as="geometry">
            <mxPoint x="454.5" y="490" as="sourcePoint" />
            <mxPoint x="504.5" y="440" as="targetPoint" />
          </mxGeometry>
        </mxCell>
        <mxCell id="ol8dqdeNw1faZMbp2K77-13" value="审核批准合理意见" style="rounded=0;whiteSpace=wrap;html=1;fontSize=16;" vertex="1" parent="ol8dqdeNw1faZMbp2K77-1">
          <mxGeometry x="429" y="470" width="151" height="40" as="geometry" />
        </mxCell>
        <mxCell id="ol8dqdeNw1faZMbp2K77-14" value="" style="endArrow=none;html=1;fontSize=16;exitX=0.5;exitY=0;exitDx=0;exitDy=0;" edge="1" parent="ol8dqdeNw1faZMbp2K77-1" source="ol8dqdeNw1faZMbp2K77-15">
          <mxGeometry width="50" height="50" relative="1" as="geometry">
            <mxPoint x="505" y="530" as="sourcePoint" />
            <mxPoint x="504.5" y="510" as="targetPoint" />
          </mxGeometry>
        </mxCell>
        <mxCell id="ol8dqdeNw1faZMbp2K77-15" value="维护实施" style="rounded=0;whiteSpace=wrap;html=1;fontSize=16;" vertex="1" parent="ol8dqdeNw1faZMbp2K77-1">
          <mxGeometry x="444.5" y="540" width="120" height="40" as="geometry" />
        </mxCell>
        <mxCell id="ol8dqdeNw1faZMbp2K77-16" style="edgeStyle=orthogonalEdgeStyle;rounded=0;orthogonalLoop=1;jettySize=auto;html=1;entryX=1;entryY=0.5;entryDx=0;entryDy=0;fontSize=16;" edge="1" parent="ol8dqdeNw1faZMbp2K77-1" source="ol8dqdeNw1faZMbp2K77-17" target="ol8dqdeNw1faZMbp2K77-15">
          <mxGeometry relative="1" as="geometry">
            <Array as="points">
              <mxPoint x="667" y="650" />
              <mxPoint x="667" y="560" />
            </Array>
          </mxGeometry>
        </mxCell>
        <mxCell id="ol8dqdeNw1faZMbp2K77-17" value="技术评审" style="rhombus;whiteSpace=wrap;html=1;fontSize=16;" vertex="1" parent="ol8dqdeNw1faZMbp2K77-1">
          <mxGeometry x="420.5" y="610" width="168" height="80" as="geometry" />
        </mxCell>
        <mxCell id="ol8dqdeNw1faZMbp2K77-18" value="" style="endArrow=none;html=1;fontSize=16;exitX=0.5;exitY=0;exitDx=0;exitDy=0;" edge="1" parent="ol8dqdeNw1faZMbp2K77-1" source="ol8dqdeNw1faZMbp2K77-17">
          <mxGeometry width="50" height="50" relative="1" as="geometry">
            <mxPoint x="454.5" y="630" as="sourcePoint" />
            <mxPoint x="504.5" y="580" as="targetPoint" />
          </mxGeometry>
        </mxCell>
        <mxCell id="ol8dqdeNw1faZMbp2K77-19" value="修改" style="text;html=1;resizable=0;points=[];autosize=1;align=left;verticalAlign=top;spacingTop=-4;fontSize=16;" vertex="1" parent="ol8dqdeNw1faZMbp2K77-1">
          <mxGeometry x="597" y="620" width="50" height="20" as="geometry" />
        </mxCell>
        <mxCell id="ol8dqdeNw1faZMbp2K77-20" value="" style="endArrow=none;html=1;fontSize=16;" edge="1" parent="ol8dqdeNw1faZMbp2K77-1" target="ol8dqdeNw1faZMbp2K77-23">
          <mxGeometry width="50" height="50" relative="1" as="geometry">
            <mxPoint x="454.5" y="740" as="sourcePoint" />
            <mxPoint x="504.5" y="690" as="targetPoint" />
          </mxGeometry>
        </mxCell>
        <mxCell id="ol8dqdeNw1faZMbp2K77-21" style="edgeStyle=orthogonalEdgeStyle;rounded=0;orthogonalLoop=1;jettySize=auto;html=1;entryX=0;entryY=0.5;entryDx=0;entryDy=0;fontSize=16;" edge="1" parent="ol8dqdeNw1faZMbp2K77-1" source="ol8dqdeNw1faZMbp2K77-23" target="ol8dqdeNw1faZMbp2K77-26">
          <mxGeometry relative="1" as="geometry" />
        </mxCell>
        <mxCell id="ol8dqdeNw1faZMbp2K77-22" style="edgeStyle=orthogonalEdgeStyle;rounded=0;orthogonalLoop=1;jettySize=auto;html=1;entryX=0.5;entryY=0;entryDx=0;entryDy=0;fontSize=16;" edge="1" parent="ol8dqdeNw1faZMbp2K77-1" source="ol8dqdeNw1faZMbp2K77-23" target="ol8dqdeNw1faZMbp2K77-28">
          <mxGeometry relative="1" as="geometry" />
        </mxCell>
        <mxCell id="ol8dqdeNw1faZMbp2K77-23" value="&lt;font style=&quot;font-size: 16px&quot;&gt;编写软件修改报告&lt;/font&gt;" style="rounded=0;whiteSpace=wrap;html=1;" vertex="1" parent="ol8dqdeNw1faZMbp2K77-1">
          <mxGeometry x="433" y="730" width="143" height="40" as="geometry" />
        </mxCell>
        <mxCell id="ol8dqdeNw1faZMbp2K77-24" value="" style="endArrow=none;html=1;fontSize=16;exitX=0.5;exitY=0;exitDx=0;exitDy=0;" edge="1" parent="ol8dqdeNw1faZMbp2K77-1" source="ol8dqdeNw1faZMbp2K77-23">
          <mxGeometry width="50" height="50" relative="1" as="geometry">
            <mxPoint x="454.5" y="740" as="sourcePoint" />
            <mxPoint x="504.5" y="690" as="targetPoint" />
          </mxGeometry>
        </mxCell>
        <mxCell id="ol8dqdeNw1faZMbp2K77-25" value="满意" style="text;html=1;resizable=0;points=[];autosize=1;align=left;verticalAlign=top;spacingTop=-4;fontSize=16;" vertex="1" parent="ol8dqdeNw1faZMbp2K77-1">
          <mxGeometry x="514.5" y="695" width="50" height="20" as="geometry" />
        </mxCell>
        <mxCell id="ol8dqdeNw1faZMbp2K77-26" value="软件修改报告" style="shape=document;whiteSpace=wrap;html=1;boundedLbl=1;fontSize=16;" vertex="1" parent="ol8dqdeNw1faZMbp2K77-1">
          <mxGeometry x="657" y="722.5" width="130" height="55" as="geometry" />
        </mxCell>
        <mxCell id="ol8dqdeNw1faZMbp2K77-27" style="edgeStyle=orthogonalEdgeStyle;rounded=0;orthogonalLoop=1;jettySize=auto;html=1;entryX=0;entryY=0.5;entryDx=0;entryDy=0;fontSize=16;" edge="1" parent="ol8dqdeNw1faZMbp2K77-1" source="ol8dqdeNw1faZMbp2K77-28" target="ol8dqdeNw1faZMbp2K77-5">
          <mxGeometry relative="1" as="geometry">
            <Array as="points">
              <mxPoint x="207" y="835" />
              <mxPoint x="207" y="250" />
            </Array>
          </mxGeometry>
        </mxCell>
        <mxCell id="ol8dqdeNw1faZMbp2K77-28" value="&lt;p class=&quot;MsoNormal&quot;&gt;&lt;span style=&quot;font-size: 14pt&quot;&gt;&lt;font face=&quot;仿宋_GB2312&quot;&gt;软件交付用户使用&lt;/font&gt;&lt;/span&gt;&lt;/p&gt;" style="rounded=0;whiteSpace=wrap;html=1;fontSize=16;" vertex="1" parent="ol8dqdeNw1faZMbp2K77-1">
          <mxGeometry x="423" y="810" width="163" height="50" as="geometry" />
        </mxCell>
      </root>
    </mxGraphModel>
  </diagram>
</mxfile>
